# xmcd
# 
# Track frame offsets:
#     182
#     19247
#     41552
#     66135
#     86292
#     105840
#     125460
#     141520
#     170742
#     188082
# 
# Disc length: 2872
# 
# Revision: 24
# Processed by: cddbd v1.5.2PL0 Copyright (c) Steve Scherf et al.
# Submitted via: fre:ac v1.0.31
# 
DISCID=820b360a
DTITLE=Rod Stewart - Greatest Hits
DYEAR=1979
DGENRE=Rock
TTITLE0=Hot Legs
TTITLE1=Maggie May
TTITLE2=Da Ya Think I'm Sexy?
TTITLE3=You're In My Heart (The Final Acclaim)
TTITLE4=Sailing
TTITLE5=I Don't Want To Talk About It
TTITLE6=Tonight's The Night (Gonna Be Alright)
TTITLE7=The Killing Of Georgie (Part I And II)
TTITLE8=The First Cut Is The Deepest
TTITLE9=I Was Only Joking
EXTD=
EXTT0=
EXTT1=
EXTT2=
EXTT3=
EXTT4=
EXTT5=
EXTT6=
EXTT7=
EXTT8=
EXTT9=
PLAYORDER=
